<svg width="16" height="17" viewBox="0 0 16 17" fill="none" xmlns="http://www.w3.org/2000/svg">
<path d="M13.3337 8.49998C13.3337 5.55446 10.9458 3.16665 8.00033 3.16665C5.05481 3.16665 2.66699 5.55446 2.66699 8.49998C2.66699 11.4455 5.05481 13.8333 8.00033 13.8333C10.9458 13.8333 13.3337 11.4455 13.3337 8.49998ZM8.00033 1.83331C11.6822 1.83331 14.667 4.81808 14.667 8.49998C14.667 12.1819 11.6822 15.1666 8.00033 15.1666C4.31843 15.1666 1.33366 12.1819 1.33366 8.49998C1.33366 4.81808 4.31843 1.83331 8.00033 1.83331ZM11.1384 8.30472C10.878 8.56507 10.4559 8.56507 10.1956 8.30472L8.66699 6.77612V11.8333C8.66699 12.2015 8.36852 12.5 8.00033 12.5C7.63214 12.5 7.33366 12.2015 7.33366 11.8333L7.33366 6.77612L5.80506 8.30472C5.54471 8.56507 5.1226 8.56507 4.86225 8.30472C4.6019 8.04437 4.6019 7.62226 4.86225 7.36191L7.52892 4.69524C7.78927 4.43489 8.21138 4.43489 8.47173 4.69524L11.1384 7.36191C11.3987 7.62226 11.3987 8.04437 11.1384 8.30472Z" fill="#58C2DD"/>
</svg>
